<?xml version="1.0" encoding="UTF-8"?>
<svg xmlns="http://www.w3.org/2000/svg"
     xmlns:xlink="http://www.w3.org/1999/xlink"
     width="64" height="64" viewBox="0 0 300 300"
     role="img" aria-label="Loading…">

  <!-- ===== simple CSS spinner ===== -->
  <style>
    .ring{
      transform-origin:150px 150px;
      animation:spin-step .75s steps(8,end) infinite;
    }
    @keyframes spin-step{to{transform:rotate(360deg)}}
  </style>

  <!-- ===== (optional) static inner core ===== -->
  <path fill="#164f8e"
        d="M179.3 142.26c-1.96-8.55-7.38-15.22-14.35-19.44-6.21-3.09-13.44-4.25-20.75-2.57
           -16.85 3.86-27.38 20.63-23.51 37.47 1.36 5.9 4.36 10.96 8.33 14.98
           -.08.13-.15.3-.24.43 7.26 6.08 17.08 8.9 27.02 6.62
           16.85-3.85 27.37-20.65 23.51-37.49Z"/>

  <!-- reusable petal -->
  <defs>
    <path id="petal"
      d="M51.15 157.8c0 .15.03.3.04.45 4.55-2.93 19.99-12.77 19.99-12.77l.1-.87
         c.37-4.65 2.59-14.92 2.59-14.92 0 0-14.24-18.02-15.51-19.72
         .51-1.16 1.04-2.31 1.59-3.45 3-16.93 7.76-31.63 13.76-43.28
         1.24-2.45 2.57-4.75 3.97-6.92
         -15.59-2.32-28.28.15-36.05 7.32
         -9.16 8.5-12.28 24.33-8.99 44.15
         2.5 14.89 8.6 32.05 18.52 50Z"/>
  </defs>

  <!-- spinning ring -->
  <g class="ring" fill="#164f8e">
    <!-- opacity rises 0.15 → 1 around the circle -->
    <use xlink:href="#petal" opacity=".15"/>
    <use xlink:href="#petal" opacity=".28" transform="rotate(45 150 150)"/>
    <use xlink:href="#petal" opacity=".41" transform="rotate(90 150 150)"/>
    <use xlink:href="#petal" opacity=".54" transform="rotate(135 150 150)"/>
    <use xlink:href="#petal" opacity=".67" transform="rotate(180 150 150)"/>
    <use xlink:href="#petal" opacity=".80" transform="rotate(225 150 150)"/>
    <use xlink:href="#petal" opacity=".93" transform="rotate(270 150 150)"/>
    <use xlink:href="#petal"               transform="rotate(315 150 150)"/>
  </g>
</svg>
