<?xml version="1.0" encoding="UTF-8"?>
<svg id="Layer_1" xmlns="http://www.w3.org/2000/svg" version="1.1" viewBox="0 0 300 300">
  <!-- Generator: Adobe Illustrator 29.1.0, SVG Export Plug-In . SVG Version: 2.1.0 Build 142)  -->
  <defs>
    <style>
      .st0 {
        fill: #164f8e;
      }
    </style>
  </defs>
  <path class="st0" d="M51.15,157.8c0,.15.03.3.04.45,4.55-2.93,19.99-12.77,19.99-12.77l.1-.87c.37-4.65,2.59-14.92,2.59-14.92,0,0-14.24-18.02-15.51-19.72.51-1.16,1.04-2.31,1.59-3.45,3-16.93,7.76-31.63,13.76-43.28,1.24-2.45,2.57-4.75,3.97-6.92-15.59-2.32-28.28.15-36.05,7.32-9.16,8.5-12.28,24.33-8.99,44.15,2.5,14.89,8.6,32.05,18.52,50Z"/>
  <path class="st0" d="M99.35,90.31l13.03-9.33s2.69-22.81,2.96-24.88c.74-.28,1.87-.63,3.21-1.02,13.86-9.6,27.37-16.45,39.6-20.38,2.65-.84,5.2-1.51,7.73-2.1h0c-9.4-12.65-20.12-19.9-30.68-20.28-12.49-.46-25.86,8.52-37.55,24.87-8.69,12.18-16.4,28.41-22.09,47.87,4.31.96,23.81,5.26,23.81,5.26Z"/>
  <path class="st0" d="M156.52,71.69l.86.07c4.68.36,14.94,2.65,14.94,2.65,0,0,12.52-9.87,17.67-13.94,0,0-.02,0-.02,0h.02c1.03-.81,1.76-1.39,2.04-1.61,1.18.51,3.18,1.61,5.54,2.98,15.06,3.02,28.2,7.48,38.82,12.95,2.43,1.26,4.74,2.59,6.91,3.96v-.03c2.32-15.57-.16-28.28-7.3-36.03-8.52-9.14-24.35-12.26-44.18-8.97-14.42,2.41-30.94,8.25-48.29,17.61,2.56,4,13,20.36,13,20.36Z"/>
  <path class="st0" d="M179.3,142.26c-1.96-8.55-7.38-15.22-14.35-19.44-6.21-3.09-13.44-4.25-20.75-2.57-16.85,3.86-27.38,20.63-23.51,37.47,1.36,5.9,4.36,10.96,8.33,14.98-.08.13-.15.3-.24.43,7.26,6.08,17.08,8.9,27.02,6.62,16.85-3.85,27.37-20.65,23.51-37.49Z"/>
  <path class="st0" d="M86.02,225.75c1.39-6.4,4.83-21.92,4.83-21.92l-9.3-13.08s-22.83-2.66-24.89-2.9c-.45-1.19-1.1-3.33-1.78-5.94-9.51-13.74-16.28-27.14-20.19-39.3-.82-2.62-1.5-5.18-2.11-7.7-12.63,9.39-19.86,20.12-20.27,30.7-.49,12.45,8.52,25.87,24.9,37.52,12.23,8.78,28.67,16.59,48.39,22.29.13.11.27.22.41.34Z"/>
  <path class="st0" d="M143.77,229.38l-15.79-2.72s-12.55,9.9-17.66,13.94h0c-1.04.81-1.76,1.38-2.04,1.59-1.06-.46-3.05-1.55-5.43-2.94-15.11-3.01-28.27-7.48-38.9-12.96-2.47-1.25-4.78-2.59-6.95-3.96v.02c-2.32,15.56.16,28.29,7.3,36.03,8.54,9.14,24.37,12.26,44.18,8.97,14.42-2.41,30.94-8.24,48.3-17.61-2.6-4.04-13-20.36-13-20.36Z"/>
  <path class="st0" d="M248.85,142.22c0-.15-.03-.3-.04-.46-4.54,2.91-19.98,12.72-19.98,12.72l-2.71,15.81s14.25,18.06,15.53,19.71c-.31.69-.84,1.72-1.51,2.93-3,17.18-7.8,32.07-13.86,43.83-1.27,2.45-2.56,4.75-3.96,6.93h.01c15.57,2.31,28.26-.17,36.04-7.37,9.16-8.47,12.23-24.3,8.95-44.11-2.49-14.9-8.59-32.05-18.49-49.99Z"/>
  <path class="st0" d="M262.78,96.88c-12.23-8.78-28.65-16.56-48.32-22.26-1.65,6.37-5.32,21.55-5.32,21.55l9.32,13.07s22.8,2.71,24.86,2.93c.45,1.17,1.09,3.29,1.76,5.87,9.51,13.76,16.31,27.17,20.22,39.36.82,2.64,1.49,5.19,2.11,7.69,12.67-9.39,19.87-20.11,20.28-30.69.47-12.46-8.54-25.86-24.91-37.52Z"/>
  <path class="st0" d="M200.93,209.69l-.66.58c-3.63,3.11-7.58,5.88-11.65,8.31l-.72.44s-2.69,22.82-2.97,24.9c-.43.16-1.48.45-2.95.83-13.93,9.7-27.55,16.6-39.87,20.57-2.64.83-5.21,1.51-7.7,2.09v.02c9.37,12.63,20.1,19.87,30.69,20.27,12.46.47,25.86-8.53,37.54-24.88,8.68-12.17,16.4-28.42,22.1-47.87-4.3-.94-23.82-5.26-23.82-5.26Z"/>
</svg>